<svg width="211" height="51" viewBox="0 0 211 51" fill="none" xmlns="http://www.w3.org/2000/svg">
<path d="M6.85503 50.3935C5.50798 50.3943 4.19098 49.9954 3.07071 49.2473C1.95044 48.4993 1.07725 47.4357 0.561656 46.1913C0.04606 44.9468 -0.088773 43.5773 0.174227 42.2562C0.437227 40.935 1.08624 39.7216 2.03912 38.7695C2.33151 38.4785 2.65214 38.2174 2.99624 37.9899C3.11317 37.9076 3.22144 37.8427 3.32971 37.7777C3.5809 37.6348 3.83209 37.5005 4.06596 37.3923C4.19155 37.336 4.32581 37.2753 4.4644 37.2234C4.73323 37.1215 5.00803 37.0362 5.28726 36.9678L5.46049 36.9202L5.56444 36.8899L7.08024 36.7859C7.2708 36.7859 7.47868 36.8206 7.69956 36.8466H8.49643C11.1609 36.8101 13.7019 35.7171 15.5608 33.8078C17.4197 31.8985 18.4445 29.3292 18.4098 26.6647V26.5045C18.398 26.4314 18.3907 26.3576 18.3881 26.2836C18.3881 26.197 18.3881 26.1104 18.3621 26.0238V25.8722C18.3621 25.7423 18.3318 25.6123 18.3232 25.4824L18.4401 23.9623C18.4401 23.9233 18.4401 23.8886 18.4704 23.854L18.4964 23.7587C18.5621 23.4646 18.6474 23.1752 18.7519 22.8925C18.8002 22.7565 18.8566 22.6234 18.9208 22.4941C19.038 22.2357 19.1696 21.9842 19.3149 21.7405C19.3799 21.6323 19.4405 21.524 19.5141 21.4201C19.7449 21.0745 20.0073 20.7511 20.298 20.4543C20.9305 19.8218 21.6813 19.3202 22.5076 18.9779C23.3339 18.6356 24.2195 18.4595 25.1139 18.4595C26.0083 18.4595 26.894 18.6356 27.7203 18.9779C28.5466 19.3202 29.2974 19.8218 29.9299 20.4543C30.5623 21.0867 31.064 21.8375 31.4063 22.6638C31.7485 23.4901 31.9247 24.3758 31.9247 25.2702C31.9247 26.1646 31.7485 27.0502 31.4063 27.8765C31.064 28.7029 30.5623 29.4537 29.9299 30.0861C29.6349 30.376 29.313 30.637 28.9684 30.8657C28.8558 30.9436 28.7475 31.0086 28.6393 31.0692C28.401 31.2123 28.1553 31.3424 27.903 31.459C27.7688 31.5196 27.6388 31.5803 27.5089 31.6279C27.239 31.7287 26.9627 31.8112 26.6817 31.8747L26.5171 31.9224L26.4089 31.9527L24.8801 32.061C24.7025 32.061 24.512 32.0307 24.3127 32.0047H23.4379C22.1164 32.0216 20.8111 32.299 19.5969 32.821C18.3827 33.3429 17.2833 34.0992 16.3617 35.0466C15.4401 35.9939 14.7144 37.1137 14.2261 38.3418C13.7378 39.57 13.4964 40.8823 13.5159 42.2039V42.3598C13.5269 42.433 13.5341 42.5067 13.5376 42.5806C13.5376 42.6673 13.5376 42.7539 13.5635 42.8405C13.5895 42.9271 13.5635 42.9877 13.5895 43.0787C13.6039 43.1821 13.6126 43.2862 13.6155 43.3905V43.4295L13.5072 44.889C13.5072 44.9193 13.4509 45.0882 13.4379 45.1402C13.372 45.4267 13.2881 45.7087 13.1868 45.9847C13.1384 46.1159 13.0835 46.2445 13.0222 46.3701C12.9052 46.63 12.7753 46.8769 12.6281 47.128C12.5631 47.232 12.4895 47.3533 12.4115 47.4702C11.7956 48.3836 10.963 49.1303 9.98811 49.6434C9.01321 50.1566 7.92638 50.4202 6.82472 50.4108L6.85503 50.3935Z" fill="#1081E0"/>
<path d="M25.2482 50.3935C23.904 50.39 22.591 49.9886 21.4745 49.24C20.3581 48.4914 19.4883 47.4291 18.9746 46.1869C18.461 44.9448 18.3266 43.5784 18.5883 42.2599C18.85 40.9415 19.4961 39.73 20.4453 38.7782C20.7419 38.4858 21.0652 38.2219 21.411 37.9899C21.5107 37.9206 21.6189 37.8557 21.7359 37.7907C21.9754 37.6473 22.2226 37.5172 22.4764 37.4009C22.6107 37.3403 22.7406 37.2797 22.8706 37.232C23.1378 37.1344 23.4112 37.0548 23.6891 36.9938L23.9576 36.9159L25.4994 36.8033C25.6813 36.8033 25.8762 36.8379 26.0841 36.8639H26.9286C29.5904 36.8251 32.128 35.7316 33.9843 33.8234C35.8405 31.9151 36.8636 29.3483 36.8289 26.6864V26.3702L36.7986 26.3356C36.7986 26.3356 36.7986 26.3139 36.7986 26.3009C36.7986 26.2879 36.7986 26.1537 36.7986 26.0757L36.7726 25.8592C36.7726 25.7379 36.7423 25.621 36.738 25.4997L36.8419 24.0272C36.8419 23.9926 36.9025 23.8107 36.9155 23.7544C36.9821 23.4695 37.066 23.1889 37.1667 22.9142C37.2144 22.7756 37.275 22.65 37.3356 22.5201C37.4541 22.2652 37.5857 22.0166 37.7297 21.7752L37.7601 21.7275C37.812 21.6366 37.864 21.55 37.9246 21.4634C38.4896 20.6458 39.2271 19.9623 40.0851 19.4609C40.9431 18.9595 41.9007 18.6526 42.8903 18.5617C43.8799 18.4708 44.8774 18.5983 45.8123 18.935C46.7473 19.2718 47.597 19.8096 48.3014 20.5106C49.5764 21.7899 50.2923 23.5225 50.2923 25.3287C50.2923 27.1349 49.5764 28.8674 48.3014 30.1467C48.0035 30.4351 47.6803 30.696 47.3356 30.9263L47.1104 31.0692L46.9891 31.1428C46.7561 31.2808 46.5162 31.4065 46.2702 31.5196C46.1359 31.5803 46.006 31.6409 45.8718 31.6885C45.6001 31.7884 45.3224 31.8708 45.0402 31.9354L44.867 31.983L44.7587 32.0133L43.2429 32.1173C43.0221 32.1173 42.7839 32.074 42.55 32.0437H41.8137C40.495 32.0617 39.1927 32.3395 37.9814 32.861C36.77 33.3826 35.6733 34.1377 34.7539 35.0832C33.8345 36.0288 33.1104 37.1463 32.623 38.3718C32.1356 39.5973 31.8945 40.9068 31.9134 42.2255V42.3771C31.9253 42.4546 31.9325 42.5326 31.935 42.611C31.935 42.6889 31.935 42.7712 31.935 42.8448C31.935 42.9185 31.935 42.9921 31.9567 43.07C31.9783 43.148 31.9827 43.2996 31.987 43.4165L31.8744 44.9107L31.8094 45.1445C31.7445 45.4384 31.6606 45.7277 31.5583 46.0107C31.515 46.132 31.4586 46.2532 31.4023 46.3745V46.4178C31.2883 46.6641 31.1611 46.9041 31.0212 47.1367C30.9519 47.2537 30.8826 47.3663 30.809 47.4745C30.5758 47.8195 30.312 48.1427 30.0208 48.4403C28.7513 49.6976 27.0349 50.4 25.2482 50.3935Z" fill="#1081E0"/>
<path d="M6.85937 32.009C5.39918 32.0266 3.97236 31.5721 2.79136 30.7132C1.61036 29.8543 0.73833 28.637 0.305118 27.2424C-0.128095 25.8479 -0.0993232 24.3507 0.387147 22.9738C0.873618 21.5969 1.79177 20.414 3.0049 19.6011C3.10884 19.5318 3.22577 19.4625 3.33837 19.3932C3.57552 19.2522 3.81982 19.1235 4.07029 19.0078C4.20022 18.9471 4.33447 18.8865 4.47306 18.8389C4.73898 18.7418 5.01096 18.6622 5.28726 18.6007L5.46049 18.553L5.55577 18.527L7.09756 18.4144C7.29678 18.4144 7.53065 18.4534 7.74286 18.4837H8.52674C11.1897 18.4461 13.7287 17.3523 15.5853 15.4429C17.4419 13.5335 18.4641 10.9649 18.4271 8.30188V8.15463C18.4146 8.07144 18.4073 7.98755 18.4054 7.90344C18.4054 7.83415 18.4054 7.76485 18.4054 7.69556L18.3838 7.48767C18.3659 7.36275 18.3543 7.23699 18.3491 7.11089L18.4531 5.68171V5.61674L18.518 5.39587C18.5837 5.10221 18.6676 4.81292 18.7692 4.5297C18.8169 4.39977 18.8775 4.27418 18.9381 4.13992C19.0542 3.88462 19.1843 3.63593 19.3279 3.39502L19.3496 3.35604C19.4102 3.25643 19.4665 3.16114 19.5315 3.06153C19.7598 2.71926 20.0193 2.39886 20.3067 2.10441C20.9338 1.44853 21.6857 0.924554 22.5181 0.563249C23.3506 0.201944 24.2468 0.0105893 25.1542 0.000427178C26.0616 -0.00973492 26.9619 0.161506 27.8022 0.504078C28.6425 0.846649 29.4059 1.35365 30.0476 1.99532C30.6893 2.637 31.1963 3.40041 31.5389 4.24073C31.8814 5.08105 32.0527 5.98134 32.0425 6.88874C32.0323 7.79615 31.841 8.69237 31.4797 9.52481C31.1184 10.3572 30.5944 11.1091 29.9385 11.7362C29.6452 12.0261 29.3247 12.2872 28.9814 12.5158C28.8775 12.5894 28.7865 12.6414 28.6956 12.6977L28.6436 12.728C28.408 12.8692 28.1652 12.9979 27.916 13.1135C27.7774 13.1784 27.6518 13.2347 27.5176 13.2824C27.2461 13.3826 26.9683 13.4651 26.6861 13.5292L26.5042 13.5769L26.3959 13.6072L24.8844 13.7111C24.6939 13.7111 24.4903 13.6765 24.2738 13.6505H23.4552C22.1345 13.6641 20.8293 13.938 19.6146 14.4567C18.3999 14.9753 17.2994 15.7285 16.3761 16.6731C15.4529 17.6177 14.725 18.7351 14.2342 19.9613C13.7434 21.1876 13.4993 22.4986 13.5159 23.8194V23.9709C13.53 24.0482 13.5387 24.1263 13.5419 24.2048C13.5419 24.2828 13.5419 24.365 13.5419 24.443C13.5419 24.5209 13.5419 24.5859 13.5679 24.6682C13.5939 24.7505 13.5939 24.8934 13.5982 25.006L13.5159 26.4872C13.5159 26.5261 13.5159 26.5651 13.4813 26.6041L13.4423 26.7384C13.3792 27.0322 13.2967 27.3216 13.1954 27.6045C13.1478 27.7345 13.0828 27.8644 13.0222 28.003C12.9118 28.2551 12.7874 28.5009 12.6497 28.7392C12.5804 28.8561 12.5155 28.9687 12.4418 29.0727C12.2115 29.4172 11.9491 29.7391 11.658 30.0341C11.0275 30.6678 10.2776 31.1702 9.45169 31.5121C8.62579 31.8541 7.74027 32.0289 6.84637 32.0263L6.85937 32.009Z" fill="#1081E0"/>
<path d="M61.0045 17.7982H68.371C69.1475 17.7982 69.8851 17.9341 70.5839 18.2058C71.2827 18.4776 71.8941 18.8561 72.4182 19.3414C72.9617 19.8266 73.3888 20.409 73.6994 21.0883C74.0099 21.7483 74.1652 22.4762 74.1652 23.2721C74.1652 24.3203 73.8935 25.2326 73.35 26.009C72.8065 26.7855 72.0882 27.3872 71.1953 27.8143V27.9307C72.2629 28.2607 73.1364 28.8722 73.8158 29.7651C74.5146 30.6386 74.864 31.6577 74.864 32.8223C74.864 33.6764 74.699 34.4626 74.369 35.1808C74.0391 35.899 73.5926 36.5201 73.0297 37.0442C72.4862 37.5489 71.8359 37.9469 71.0789 38.238C70.3413 38.5098 69.5648 38.6456 68.7495 38.6456H61.0045V17.7982ZM68.3419 27.1155C68.9437 27.1155 69.4872 27.0087 69.9724 26.7952C70.4577 26.5817 70.8751 26.3002 71.2245 25.9508C71.5739 25.6014 71.8359 25.2035 72.0106 24.757C72.2047 24.2912 72.3018 23.8156 72.3018 23.3303C72.3018 22.845 72.2047 22.3792 72.0106 21.9327C71.8359 21.4863 71.5739 21.0883 71.2245 20.7389C70.8945 20.3895 70.4965 20.1081 70.0307 19.8946C69.5648 19.681 69.0407 19.5743 68.4584 19.5743H62.868V27.1155H68.3419ZM68.9534 36.8695C69.5163 36.8695 70.0404 36.7628 70.5257 36.5493C71.0109 36.3357 71.438 36.0446 71.8068 35.6758C72.1756 35.3069 72.4571 34.8799 72.6512 34.3946C72.8647 33.9094 72.9714 33.395 72.9714 32.8514C72.9714 32.3079 72.8647 31.8032 72.6512 31.3374C72.4376 30.8521 72.1465 30.4251 71.7777 30.0563C71.4089 29.6874 70.9721 29.3963 70.4674 29.1828C69.9627 28.9692 69.4192 28.8625 68.8369 28.8625H62.868V36.8695H68.9534Z" fill="#2D3643"/>
<path d="M77.22 17.7982H79.0834V36.8695H88.5172V38.6456H77.22V17.7982Z" fill="#2D3643"/>
<path d="M92.5123 19.5743V27.3484H101.48V29.0954H92.5123V36.8695H102.412V38.6456H90.6489V17.7982H102.412V19.5743H92.5123Z" fill="#2D3643"/>
<path d="M111.616 17.7982H113.771L121.836 38.6456H119.798L117.527 32.6185H107.86L105.589 38.6456H103.551L111.616 17.7982ZM116.857 30.8715L112.752 20.0693H112.635L108.53 30.8715H116.857Z" fill="#2D3643"/>
<path d="M130.296 39.1115C129.17 39.1115 128.141 38.9174 127.21 38.5292C126.297 38.141 125.511 37.5877 124.851 36.8695C124.191 36.1513 123.677 35.2972 123.308 34.3073C122.958 33.3173 122.784 32.2206 122.784 31.0171V17.7982H124.647V31.1336C124.647 32.0071 124.773 32.8223 125.026 33.5794C125.278 34.3364 125.637 34.9964 126.103 35.5593C126.588 36.1028 127.18 36.5395 127.879 36.8695C128.578 37.1801 129.384 37.3354 130.296 37.3354C131.189 37.3354 131.985 37.1801 132.683 36.8695C133.382 36.5395 133.974 36.1028 134.46 35.5593C134.945 34.9964 135.314 34.3364 135.566 33.5794C135.818 32.8223 135.944 32.0071 135.944 31.1336V17.7982H137.808V31.0171C137.808 32.2206 137.633 33.3173 137.284 34.3073C136.954 35.2972 136.459 36.1513 135.799 36.8695C135.158 37.5877 134.372 38.141 133.44 38.5292C132.509 38.9174 131.461 39.1115 130.296 39.1115Z" fill="#2D3643"/>
<path d="M145.168 38.6456V22.1074H139.344V17.7982H155.533V22.1074H149.71V38.6456H145.168Z" fill="#2D3643"/>
<path d="M161.983 22.1074V26.0673H170.252V30.3765H161.983V34.3364H171.184V38.6456H157.441V17.7982H171.184V22.1074H161.983Z" fill="#2D3643"/>
<path d="M191.658 35.2681C189.522 37.8304 186.737 39.1115 183.301 39.1115C181.748 39.1115 180.302 38.8301 178.963 38.2671C177.623 37.7042 176.459 36.9375 175.469 35.9669C174.498 34.977 173.732 33.822 173.169 32.502C172.606 31.1821 172.324 29.7554 172.324 28.2219C172.324 26.6884 172.606 25.2617 173.169 23.9418C173.732 22.6218 174.498 21.4766 175.469 20.506C176.459 19.516 177.623 18.7396 178.963 18.1767C180.302 17.6138 181.748 17.3323 183.301 17.3323C185.009 17.3323 186.485 17.6235 187.727 18.2058C188.989 18.7881 190.134 19.6325 191.163 20.7389L187.989 23.8253C187.446 23.2042 186.795 22.6898 186.038 22.2821C185.281 21.8551 184.379 21.6416 183.33 21.6416C182.418 21.6416 181.564 21.7968 180.768 22.1074C179.992 22.418 179.312 22.8645 178.73 23.4468C178.148 24.0291 177.691 24.7279 177.361 25.5432C177.031 26.339 176.866 27.2319 176.866 28.2219C176.866 29.2119 177.031 30.1145 177.361 30.9298C177.691 31.7256 178.148 32.4147 178.73 32.997C179.312 33.5794 179.992 34.0258 180.768 34.3364C181.564 34.647 182.418 34.8023 183.33 34.8023C184.437 34.8023 185.398 34.579 186.213 34.1326C187.028 33.6861 187.766 33.0456 188.426 32.2109L191.658 35.2681Z" fill="#2D3643"/>
<path d="M193.938 17.7982H198.48V25.8343H206.458V17.7982H211V38.6456H206.458V30.1436H198.48V38.6456H193.938V17.7982Z" fill="#2D3643"/>
</svg>
