<svg width="211" height="51" viewBox="0 0 211 51" fill="none" xmlns="http://www.w3.org/2000/svg">
<path d="M6.85503 50.8001C5.50798 50.8009 4.19098 50.402 3.07071 49.6539C1.95044 48.9059 1.07725 47.8423 0.561656 46.5979C0.04606 45.3534 -0.088773 43.9839 0.174227 42.6628C0.437227 41.3417 1.08624 40.1282 2.03912 39.1761C2.33151 38.8852 2.65214 38.624 2.99624 38.3965C3.11317 38.3143 3.22144 38.2493 3.32971 38.1843C3.5809 38.0414 3.83209 37.9072 4.06596 37.7989C4.19155 37.7426 4.32581 37.682 4.4644 37.63C4.73323 37.5281 5.00803 37.4428 5.28726 37.3745L5.46049 37.3268L5.56444 37.2965L7.08024 37.1926C7.2708 37.1926 7.47868 37.2272 7.69956 37.2532H8.49643C11.1609 37.2167 13.7019 36.1237 15.5608 34.2144C17.4197 32.3051 18.4445 29.7359 18.4098 27.0713V26.9111C18.398 26.838 18.3907 26.7642 18.3881 26.6902C18.3881 26.6036 18.3881 26.517 18.3621 26.4304V26.2788C18.3621 26.1489 18.3318 26.0189 18.3232 25.889L18.4401 24.3689C18.4401 24.3299 18.4401 24.2953 18.4704 24.2606L18.4964 24.1653C18.5621 23.8712 18.6474 23.5818 18.7519 23.2992C18.8002 23.1631 18.8566 23.0301 18.9208 22.9007C19.038 22.6424 19.1696 22.3908 19.3149 22.1472C19.3799 22.0389 19.4405 21.9306 19.5141 21.8267C19.7449 21.4811 20.0073 21.1578 20.298 20.8609C20.9305 20.2284 21.6813 19.7268 22.5076 19.3845C23.3339 19.0422 24.2195 18.8661 25.1139 18.8661C26.0083 18.8661 26.894 19.0422 27.7203 19.3845C28.5466 19.7268 29.2974 20.2284 29.9299 20.8609C30.5623 21.4933 31.064 22.2441 31.4063 23.0704C31.7485 23.8968 31.9247 24.7824 31.9247 25.6768C31.9247 26.5712 31.7485 27.4568 31.4063 28.2832C31.064 29.1095 30.5623 29.8603 29.9299 30.4927C29.6349 30.7826 29.313 31.0436 28.9684 31.2723C28.8558 31.3502 28.7475 31.4152 28.6393 31.4758C28.401 31.6189 28.1553 31.749 27.903 31.8656C27.7688 31.9262 27.6388 31.9869 27.5089 32.0345C27.239 32.1353 26.9627 32.2178 26.6817 32.2814L26.5171 32.329L26.4089 32.3593L24.8801 32.4676C24.7025 32.4676 24.512 32.4373 24.3127 32.4113H23.4379C22.1164 32.4282 20.8111 32.7056 19.5969 33.2276C18.3827 33.7496 17.2833 34.5058 16.3617 35.4532C15.4401 36.4005 14.7144 37.5203 14.2261 38.7484C13.7378 39.9766 13.4964 41.289 13.5159 42.6105V42.7664C13.5269 42.8396 13.5341 42.9133 13.5376 42.9873C13.5376 43.0739 13.5376 43.1605 13.5635 43.2471C13.5895 43.3337 13.5635 43.3944 13.5895 43.4853C13.6039 43.5887 13.6126 43.6928 13.6155 43.7971V43.8361L13.5072 45.2956C13.5072 45.3259 13.4509 45.4948 13.4379 45.5468C13.372 45.8333 13.2881 46.1154 13.1868 46.3913C13.1384 46.5225 13.0835 46.6511 13.0222 46.7768C12.9052 47.0366 12.7753 47.2835 12.6281 47.5347C12.5631 47.6386 12.4895 47.7599 12.4115 47.8768C11.7956 48.7903 10.963 49.5369 9.98811 50.0501C9.01321 50.5632 7.92638 50.8269 6.82472 50.8175L6.85503 50.8001Z" fill="white"/>
<path d="M25.2482 50.8001C23.904 50.7966 22.591 50.3952 21.4745 49.6467C20.3581 48.8981 19.4883 47.8357 18.9746 46.5936C18.461 45.3514 18.3266 43.985 18.5883 42.6665C18.85 41.3481 19.4961 40.1366 20.4453 39.1848C20.7419 38.8925 21.0652 38.6286 21.411 38.3965C21.5107 38.3273 21.6189 38.2623 21.7359 38.1973C21.9754 38.0539 22.2226 37.9238 22.4764 37.8076C22.6107 37.7469 22.7406 37.6863 22.8706 37.6386C23.1378 37.541 23.4112 37.4614 23.6891 37.4005L23.9576 37.3225L25.4994 37.2099C25.6813 37.2099 25.8762 37.2445 26.0841 37.2705H26.9286C29.5904 37.2317 32.128 36.1382 33.9843 34.23C35.8405 32.3218 36.8636 29.7549 36.8289 27.093V26.7768L36.7986 26.7422C36.7986 26.7422 36.7986 26.7205 36.7986 26.7076C36.7986 26.6946 36.7986 26.5603 36.7986 26.4824L36.7726 26.2658C36.7726 26.1445 36.7423 26.0276 36.738 25.9063L36.8419 24.4339C36.8419 24.3992 36.9025 24.2173 36.9155 24.161C36.9821 23.8761 37.066 23.5955 37.1667 23.3208C37.2144 23.1822 37.275 23.0566 37.3356 22.9267C37.4541 22.6718 37.5857 22.4232 37.7297 22.1818L37.7601 22.1342C37.812 22.0432 37.864 21.9566 37.9246 21.87C38.4896 21.0525 39.2271 20.3689 40.0851 19.8675C40.9431 19.3661 41.9007 19.0592 42.8903 18.9683C43.8799 18.8774 44.8774 19.0049 45.8123 19.3416C46.7473 19.6784 47.597 20.2162 48.3014 20.9172C49.5764 22.1965 50.2923 23.9291 50.2923 25.7353C50.2923 27.5415 49.5764 29.274 48.3014 30.5534C48.0035 30.8417 47.6803 31.1026 47.3356 31.3329L47.1104 31.4758L46.9891 31.5495C46.7561 31.6874 46.5162 31.8131 46.2702 31.9262C46.1359 31.9869 46.006 32.0475 45.8718 32.0951C45.6001 32.195 45.3224 32.2774 45.0402 32.342L44.867 32.3896L44.7587 32.42L43.2429 32.5239C43.0221 32.5239 42.7839 32.4806 42.55 32.4503H41.8137C40.495 32.4684 39.1927 32.7461 37.9814 33.2676C36.77 33.7892 35.6733 34.5443 34.7539 35.4899C33.8345 36.4354 33.1104 37.5529 32.623 38.7784C32.1356 40.0039 31.8945 41.3134 31.9134 42.6321V42.7837C31.9253 42.8612 31.9325 42.9393 31.935 43.0176C31.935 43.0955 31.935 43.1778 31.935 43.2515C31.935 43.3251 31.935 43.3987 31.9567 43.4767C31.9783 43.5546 31.9827 43.7062 31.987 43.8231L31.8744 45.3173L31.8094 45.5511C31.7445 45.845 31.6606 46.1343 31.5583 46.4173C31.515 46.5386 31.4586 46.6598 31.4023 46.7811V46.8244C31.2883 47.0707 31.1611 47.3107 31.0212 47.5433C30.9519 47.6603 30.8826 47.7729 30.809 47.8811C30.5758 48.2261 30.312 48.5493 30.0208 48.8469C28.7513 50.1042 27.0349 50.8066 25.2482 50.8001Z" fill="white"/>
<path d="M6.85937 32.4156C5.39918 32.4332 3.97236 31.9787 2.79136 31.1198C1.61036 30.2609 0.73833 29.0436 0.305118 27.649C-0.128095 26.2545 -0.0993232 24.7573 0.387147 23.3804C0.873618 22.0035 1.79177 20.8206 3.0049 20.0077C3.10884 19.9384 3.22577 19.8691 3.33837 19.7998C3.57552 19.6588 3.81982 19.5301 4.07029 19.4144C4.20022 19.3538 4.33447 19.2931 4.47306 19.2455C4.73898 19.1484 5.01096 19.0689 5.28726 19.0073L5.46049 18.9596L5.55577 18.9337L7.09756 18.8211C7.29678 18.8211 7.53065 18.86 7.74286 18.8904H8.52674C11.1897 18.8527 13.7287 17.7589 15.5853 15.8495C17.4419 13.9401 18.4641 11.3715 18.4271 8.70849V8.56124C18.4146 8.47806 18.4073 8.39416 18.4054 8.31006C18.4054 8.24077 18.4054 8.17147 18.4054 8.10217L18.3838 7.89429C18.3659 7.76936 18.3543 7.64361 18.3491 7.51751L18.4531 6.08833V6.02335L18.518 5.80249C18.5837 5.50882 18.6676 5.21954 18.7692 4.93632C18.8169 4.80639 18.8775 4.6808 18.9381 4.54654C19.0542 4.29123 19.1843 4.04255 19.3279 3.80163L19.3496 3.76266C19.4102 3.66305 19.4665 3.56776 19.5315 3.46815C19.7598 3.12588 20.0193 2.80548 20.3067 2.51103C20.9338 1.85515 21.6857 1.33117 22.5181 0.969865C23.3506 0.60856 24.2468 0.417205 25.1542 0.407043C26.0616 0.396881 26.9619 0.568122 27.8022 0.910694C28.6425 1.25327 29.4059 1.76027 30.0476 2.40194C30.6893 3.04361 31.1963 3.80703 31.5389 4.64734C31.8814 5.48766 32.0527 6.38795 32.0425 7.29536C32.0323 8.20276 31.841 9.09899 31.4797 9.93142C31.1184 10.7639 30.5944 11.5157 29.9385 12.1429C29.6452 12.4328 29.3247 12.6938 28.9814 12.9224C28.8775 12.9961 28.7865 13.048 28.6956 13.1043L28.6436 13.1346C28.408 13.2758 28.1652 13.4045 27.916 13.5201C27.7774 13.585 27.6518 13.6413 27.5176 13.689C27.2461 13.7893 26.9683 13.8717 26.6861 13.9358L26.5042 13.9835L26.3959 14.0138L24.8844 14.1177C24.6939 14.1177 24.4903 14.0831 24.2738 14.0571H23.4552C22.1345 14.0707 20.8293 14.3446 19.6146 14.8633C18.3999 15.382 17.2994 16.1351 16.3761 17.0797C15.4529 18.0243 14.725 19.1417 14.2342 20.3679C13.7434 21.5942 13.4993 22.9052 13.5159 24.226V24.3775C13.53 24.4548 13.5387 24.533 13.5419 24.6114C13.5419 24.6894 13.5419 24.7717 13.5419 24.8496C13.5419 24.9276 13.5419 24.9925 13.5679 25.0748C13.5939 25.1571 13.5939 25.3 13.5982 25.4126L13.5159 26.8938C13.5159 26.9328 13.5159 26.9717 13.4813 27.0107L13.4423 27.145C13.3792 27.4388 13.2967 27.7282 13.1954 28.0111C13.1478 28.1411 13.0828 28.271 13.0222 28.4096C12.9118 28.6617 12.7874 28.9075 12.6497 29.1458C12.5804 29.2628 12.5155 29.3754 12.4418 29.4793C12.2115 29.8238 11.9491 30.1458 11.658 30.4408C11.0275 31.0744 10.2776 31.5768 9.45169 31.9188C8.62579 32.2607 7.74027 32.4355 6.84637 32.433L6.85937 32.4156Z" fill="white"/>
<path d="M61.0045 18.2048H68.371C69.1475 18.2048 69.8851 18.3407 70.5839 18.6124C71.2827 18.8842 71.8941 19.2627 72.4182 19.748C72.9617 20.2332 73.3888 20.8156 73.6994 21.495C74.0099 22.1549 74.1652 22.8829 74.1652 23.6787C74.1652 24.7269 73.8935 25.6392 73.35 26.4157C72.8065 27.1921 72.0882 27.7939 71.1953 28.2209V28.3374C72.2629 28.6673 73.1364 29.2788 73.8158 30.1717C74.5146 31.0452 74.864 32.0643 74.864 33.2289C74.864 34.083 74.699 34.8692 74.369 35.5874C74.0391 36.3056 73.5926 36.9268 73.0297 37.4509C72.4862 37.9555 71.8359 38.3535 71.0789 38.6446C70.3413 38.9164 69.5648 39.0523 68.7495 39.0523H61.0045V18.2048ZM68.3419 27.5221C68.9437 27.5221 69.4872 27.4153 69.9724 27.2018C70.4577 26.9883 70.8751 26.7068 71.2245 26.3574C71.5739 26.008 71.8359 25.6101 72.0106 25.1637C72.2047 24.6978 72.3018 24.2222 72.3018 23.7369C72.3018 23.2517 72.2047 22.7858 72.0106 22.3393C71.8359 21.8929 71.5739 21.495 71.2245 21.1456C70.8945 20.7962 70.4965 20.5147 70.0307 20.3012C69.5648 20.0877 69.0407 19.9809 68.4584 19.9809H62.868V27.5221H68.3419ZM68.9534 37.2761C69.5163 37.2761 70.0404 37.1694 70.5257 36.9559C71.0109 36.7423 71.438 36.4512 71.8068 36.0824C72.1756 35.7136 72.4571 35.2865 72.6512 34.8012C72.8647 34.316 72.9714 33.8016 72.9714 33.2581C72.9714 32.7146 72.8647 32.2099 72.6512 31.744C72.4376 31.2587 72.1465 30.8317 71.7777 30.4629C71.4089 30.0941 70.9721 29.8029 70.4674 29.5894C69.9627 29.3759 69.4192 29.2691 68.8369 29.2691H62.868V37.2761H68.9534Z" fill="white"/>
<path d="M77.22 18.2048H79.0834V37.2761H88.5172V39.0523H77.22V18.2048Z" fill="white"/>
<path d="M92.5123 19.9809V27.755H101.48V29.502H92.5123V37.2761H102.412V39.0523H90.6489V18.2048H102.412V19.9809H92.5123Z" fill="white"/>
<path d="M111.616 18.2048H113.771L121.836 39.0523H119.798L117.527 33.0251H107.86L105.589 39.0523H103.551L111.616 18.2048ZM116.857 31.2781L112.752 20.4759H112.635L108.53 31.2781H116.857Z" fill="white"/>
<path d="M130.296 39.5181C129.17 39.5181 128.141 39.324 127.21 38.9358C126.297 38.5476 125.511 37.9944 124.851 37.2761C124.191 36.5579 123.677 35.7039 123.308 34.7139C122.958 33.7239 122.784 32.6272 122.784 31.4237V18.2048H124.647V31.5402C124.647 32.4137 124.773 33.2289 125.026 33.986C125.278 34.743 125.637 35.403 126.103 35.9659C126.588 36.5094 127.18 36.9462 127.879 37.2761C128.578 37.5867 129.384 37.742 130.296 37.742C131.189 37.742 131.985 37.5867 132.683 37.2761C133.382 36.9462 133.974 36.5094 134.46 35.9659C134.945 35.403 135.314 34.743 135.566 33.986C135.818 33.2289 135.944 32.4137 135.944 31.5402V18.2048H137.808V31.4237C137.808 32.6272 137.633 33.7239 137.284 34.7139C136.954 35.7039 136.459 36.5579 135.799 37.2761C135.158 37.9944 134.372 38.5476 133.44 38.9358C132.509 39.324 131.461 39.5181 130.296 39.5181Z" fill="white"/>
<path d="M145.168 39.0523V22.514H139.344V18.2048H155.533V22.514H149.71V39.0523H145.168Z" fill="white"/>
<path d="M161.983 22.514V26.4739H170.252V30.7832H161.983V34.743H171.184V39.0523H157.441V18.2048H171.184V22.514H161.983Z" fill="white"/>
<path d="M191.658 35.6747C189.522 38.237 186.737 39.5181 183.301 39.5181C181.748 39.5181 180.302 39.2367 178.963 38.6737C177.623 38.1108 176.459 37.3441 175.469 36.3735C174.498 35.3836 173.732 34.2286 173.169 32.9087C172.606 31.5887 172.324 30.162 172.324 28.6285C172.324 27.0951 172.606 25.6683 173.169 24.3484C173.732 23.0284 174.498 21.8832 175.469 20.9126C176.459 19.9227 177.623 19.1462 178.963 18.5833C180.302 18.0204 181.748 17.7389 183.301 17.7389C185.009 17.7389 186.485 18.0301 187.727 18.6124C188.989 19.1948 190.134 20.0391 191.163 21.1456L187.989 24.2319C187.446 23.6108 186.795 23.0964 186.038 22.6887C185.281 22.2617 184.379 22.0482 183.33 22.0482C182.418 22.0482 181.564 22.2035 180.768 22.514C179.992 22.8246 179.312 23.2711 178.73 23.8534C178.148 24.4357 177.691 25.1345 177.361 25.9498C177.031 26.7457 176.866 27.6386 176.866 28.6285C176.866 29.6185 177.031 30.5211 177.361 31.3364C177.691 32.1322 178.148 32.8213 178.73 33.4036C179.312 33.986 179.992 34.4324 180.768 34.743C181.564 35.0536 182.418 35.2089 183.33 35.2089C184.437 35.2089 185.398 34.9856 186.213 34.5392C187.028 34.0927 187.766 33.4522 188.426 32.6175L191.658 35.6747Z" fill="white"/>
<path d="M193.938 18.2048H198.48V26.241H206.458V18.2048H211V39.0523H206.458V30.5502H198.48V39.0523H193.938V18.2048Z" fill="white"/>
</svg>
